<svg width="20" height="20" viewBox="0 0 20 20" fill="none" xmlns="http://www.w3.org/2000/svg">
<g clip-path="url(#clip0)">
<path fill-rule="evenodd" clip-rule="evenodd" d="M2.39579 0.0427991C1.81134 0.110899 0.692441 0.395749 0.573891 0.506599C0.556341 0.523 0.670641 0.57815 0.827791 0.62915C2.84299 1.28315 5.02259 3.34875 5.56349 5.1172C5.91614 6.27015 5.73009 6.6695 4.33014 7.76501C2.67704 9.05871 2.14499 9.73621 1.02599 11.9727C-0.117758 14.2586 -0.302358 16.3084 0.397192 18.9563C0.464042 19.2094 0.527792 19.4074 0.538791 19.3964C0.549841 19.3854 0.592341 19.275 0.633341 19.1511C1.36849 16.9274 4.38604 14.1921 5.97839 14.3061C6.49999 14.3434 6.70799 14.5028 7.32289 15.3362C9.95594 18.9052 14.7172 20.7144 18.9163 19.7416C19.4711 19.613 19.4686 19.6285 18.9749 19.3768C16.1655 17.9447 14.68 16.1732 14.2965 13.7977C14.2367 13.4269 14.2265 13.4407 15.0092 12.8284C17.2563 11.0705 18.3867 9.76886 19.1691 8.03816C20.1187 5.9377 20.2816 2.7746 19.5486 0.6682C19.5382 0.63825 19.4175 0.8404 19.2804 1.1174C18.3653 2.9669 16.4727 5.02425 15.0906 5.67195C14.0438 6.1625 13.4314 5.9829 12.7482 4.9849C10.5707 1.80435 6.00079 -0.377251 2.39579 0.0427991ZM10.2056 8.29951C11.7905 8.63536 12.3835 10.581 11.2486 11.7218C10.0141 12.9628 7.93894 12.2269 7.75204 10.4818C7.61004 9.15581 8.88704 8.02006 10.2056 8.29951Z" fill="#FFC857"/>
</g>
<defs>
<clipPath id="clip0">
<rect width="20" height="20" fill="white"/>
</clipPath>
</defs>
</svg>
